<svg width="1810" height="1809" viewBox="0 0 1810 1809" fill="none" xmlns="http://www.w3.org/2000/svg">
<g clip-path="url(#clip0_26_36)">
<path fill-rule="evenodd" clip-rule="evenodd" d="M25 905C25 420.646 417.87 28 902.5 28C1387.13 28 1780 420.646 1780 905C1780 1389.35 1387.13 1782 902.5 1782C417.87 1782 25 1389.35 25 905Z" fill="white" stroke="black" stroke-width="55" stroke-miterlimit="8"/>
<path fill-rule="evenodd" clip-rule="evenodd" d="M1158.38 1539.89L1142.15 1590.49H1174.41L1158.38 1539.89ZM882.559 1525.67V1565.9H904.88C912.05 1565.9 917.461 1564.18 921.113 1560.72C924.766 1557.27 926.592 1552.36 926.592 1545.99C926.592 1539.62 924.8 1534.64 921.215 1531.05C917.63 1527.46 912.32 1525.67 905.286 1525.67H882.559ZM767.318 1524.25C757.713 1524.25 750.442 1528.07 745.504 1535.73C740.567 1543.38 738.097 1554.59 738.097 1569.36V1574.44C738.097 1589.2 740.6 1600.52 745.606 1608.37C750.611 1616.23 757.916 1620.16 767.521 1620.16C776.855 1620.16 784.059 1616.23 789.132 1608.37C794.205 1600.52 796.741 1589.2 796.741 1574.44V1569.36C796.741 1554.59 794.205 1543.38 789.132 1535.73C784.059 1528.07 776.787 1524.25 767.318 1524.25ZM1142.56 1498.03H1174.21L1229 1645.97H1192.68L1183.55 1617.93H1133.02L1124.09 1645.97H1087.57L1142.56 1498.03ZM978.959 1498.03H1080.01V1525.67H1013.25V1556.56H1069.66V1583.18H1013.25V1618.53H1079.81V1645.97H978.959V1498.03ZM848.671 1498.03H905.286C922.737 1498.03 936.366 1501.89 946.174 1509.61C955.982 1517.34 960.885 1528.45 960.885 1542.94C960.885 1553.51 958.687 1562.08 954.291 1568.65C949.894 1575.22 943.435 1580.53 934.912 1584.6L965.959 1644.55V1645.97H929.23L903.459 1593.54H882.559V1645.97H848.671V1498.03ZM580 1498.03H614.29V1562.45L626.67 1544.57L660.36 1498.03H702.56L651.83 1563.46L703.17 1645.97H662.38L629.51 1589.68L614.29 1605.94V1645.97H580V1498.03ZM767.318 1496C779.764 1496 790.823 1498.98 800.495 1504.94C810.168 1510.9 817.709 1519.44 823.121 1530.55C828.532 1541.65 831.237 1554.66 831.237 1569.56V1574.44C831.237 1589.48 828.566 1602.55 823.222 1613.66C817.878 1624.77 810.37 1633.27 800.698 1639.16C791.026 1645.05 779.967 1648 767.521 1648C754.94 1648 743.813 1645.05 734.141 1639.16C724.468 1633.27 716.893 1624.77 711.414 1613.66C705.94 1602.55 703.2 1589.48 703.2 1574.44V1569.56C703.2 1554.66 705.9 1541.65 711.312 1530.55C716.724 1519.44 724.299 1510.9 734.039 1504.94C743.779 1498.98 754.872 1496 767.318 1496Z" fill="black"/>
<path fill-rule="evenodd" clip-rule="evenodd" d="M1398.17 282.344L1469 329.581L1460.3 342.606L1432.88 324.319L1382.57 399.646L1366.34 388.822L1416.65 313.494L1389.47 295.37L1398.17 282.344ZM432.82 280.388L489.85 370.025L473.51 380.409L455.74 352.483L431.66 311.06L449.31 395.787L437.7 403.159L368.53 351.17L395.73 390.611L413.5 418.537L397.03 429L340 339.363L361.46 325.729L429.53 377.367L411.48 293.943L432.82 280.388ZM1340.42 252.464L1357.53 261.54L1307.68 355.357L1290.58 346.281L1340.42 252.464ZM532.5 232.091C537.64 231.673 542.48 232.297 547.03 233.966C556.13 237.301 563.47 243.877 569.05 253.692L551.17 261.502C547.69 255.28 543.72 251.238 539.25 249.376C534.78 247.513 529.2 248.041 522.52 250.96C515.2 254.155 510.87 259.246 509.51 266.233C508.16 273.22 509.75 281.903 514.29 292.281L517.61 299.862C526.88 321.069 538.7 328.537 553.06 322.265C559.83 319.307 564.11 315.613 565.88 311.184C567.66 306.755 567.5 301.179 565.42 294.456L583.3 286.645C586.87 297.018 586.67 306.699 582.7 315.69C578.72 324.681 570.96 331.701 559.4 336.75C551.36 340.261 543.53 341.423 535.91 340.236C528.29 339.049 521.36 335.681 515.12 330.132C508.87 324.584 503.7 317.117 499.59 307.731L496.33 300.286C492.23 290.901 490.28 282.023 490.49 273.654C490.71 265.285 493.01 257.884 497.4 251.451C501.79 245.018 508.05 240.026 516.18 236.476C521.92 233.971 527.35 232.509 532.5 232.091ZM1190.32 190.563L1214.08 199.625L1213.27 285.022L1269.46 220.752L1293.08 229.761L1255.17 328.999L1237.08 322.097L1248.89 291.18L1267.77 247.146L1210.29 311.876L1197.44 306.976L1197.88 220.487L1182.46 265.839L1170.65 296.755L1152.41 289.801L1190.32 190.563ZM675.36 181.675L679.69 196.726L648 205.824L673.02 292.864L654.27 298.249L629.24 211.208L597.84 220.224L593.51 205.173L675.36 181.675ZM1028.47 156.81L1053.43 161.625L1067.43 245.873L1111.64 172.85L1136.47 177.636L1116.33 281.933L1097.31 278.266L1103.58 245.773L1114.55 199.138L1069.15 272.836L1055.65 270.233L1041.09 184.974L1033.76 232.309L1027.49 264.803L1008.33 261.107L1028.47 156.81ZM808.044 156.449C815.797 155.73 822.7 156.524 828.754 158.832C834.808 161.139 839.633 164.598 843.229 169.21C846.825 173.823 848.905 179.169 849.469 185.249L830.038 187.051C829.555 181.853 827.554 177.885 824.033 175.145C820.512 172.405 815.562 171.331 809.183 171.922C803.197 172.477 798.752 174.175 795.848 177.016C792.945 179.857 791.684 183.337 792.067 187.456C792.403 191.085 794.484 194.032 798.307 196.299C802.13 198.565 807.974 200.472 815.838 202.018C828.139 204.438 837.381 208.032 843.565 212.8C849.748 217.568 853.227 224.12 854.001 232.456C854.839 241.478 852.064 248.907 845.677 254.741C839.29 260.576 830.306 264.03 818.726 265.104C811.562 265.768 804.672 265.121 798.057 263.162C791.441 261.204 785.885 257.862 781.387 253.135C776.89 248.409 774.3 242.368 773.617 235.013L793.048 233.211C793.64 239.586 796.114 244.104 800.469 246.767C804.824 249.429 810.436 250.442 817.306 249.805C823.292 249.25 827.764 247.574 830.721 244.778C833.678 241.981 834.966 238.523 834.584 234.405C834.319 231.56 833.483 229.215 832.074 227.367C830.665 225.519 828.316 223.932 825.025 222.605C821.734 221.278 816.96 219.965 810.703 218.666C799.294 216.262 790.289 212.819 783.687 208.337C777.084 203.855 773.405 197.544 772.649 189.405C772.112 183.619 773.255 178.344 776.079 173.582C778.904 168.82 783.073 164.947 788.586 161.962C794.1 158.978 800.585 157.141 808.044 156.449ZM894.397 151L913.898 151.724L911.274 222.293C911.007 229.477 912.605 234.908 916.068 238.585C919.531 242.261 924.513 244.221 931.013 244.462C937.514 244.703 942.627 243.119 946.354 239.709C950.081 236.3 952.078 231.002 952.345 223.818L954.969 153.249L974.47 153.973L971.846 224.542C971.553 232.416 969.58 239.069 965.926 244.502C962.272 249.935 957.363 253.966 951.2 256.595C945.037 259.224 938.114 260.397 930.431 260.111C922.552 259.819 915.661 258.158 909.757 255.13C903.853 252.102 899.307 247.72 896.117 241.984C892.928 236.247 891.48 229.442 891.773 221.569L894.397 151Z" fill="black"/>
<path fill-rule="evenodd" clip-rule="evenodd" d="M905.307 363L918.26 363.148L918.345 371.019C918.425 384.256 918.425 401.938 918.297 420.867C918.041 458.596 918.169 490.059 918.553 490.826C918.936 491.465 930.433 492.105 944.103 492.361C966.459 492.744 969.525 493 974.124 495.431C980.256 498.628 986.9 506.941 988.816 513.591C989.455 516.149 990.093 531.497 990.093 548.124V577.796H1000.44C1006.06 577.796 1013.22 578.435 1016.28 579.202C1023.18 580.993 1031.36 587.771 1035.19 594.933L1038 600.177V677.55L1037.99 695.06L1011.3 704.46L1011.17 704.52V692.26L946.913 691.62L882.527 690.98L880.099 687.91C876.65 683.69 876.65 671.42 880.099 667.19L882.527 664.13L947.297 663.74L1011.94 663.36L1011.56 637.27C1011.17 612.07 1011.04 611.05 1008.23 608.23L1005.3 605.29H904.5H803.704L800.766 608.23C797.955 611.05 797.828 611.82 797.828 637.01V662.85L825.038 663.49C851.867 664.13 852.378 664.13 854.805 667.19C858.254 671.42 858.254 683.69 854.805 687.91C852.378 690.98 851.994 690.98 824.783 691.37L797.189 691.75V717.33V743.04L800.894 746.75L804.598 750.46H904.372H948.688L944.941 754.06C940.1 758.94 935.778 763.58 932.706 767.3C929.697 770.89 927.2 773.97 924.883 777.08L924.726 777.31H904.5H872.945L872.179 794.32C872.051 797.68 871.963 816.93 871.913 844.33L871.888 862.45L854.223 882L844.457 890V777.31H820.44C793.229 777.31 787.608 776.16 780.326 769.13C777.899 766.7 774.833 762.61 773.427 759.92C771.128 755.19 771 751.22 771 677.55V600.177L773.81 594.933C777.643 587.771 785.819 580.993 792.718 579.202C795.784 578.435 802.938 577.796 808.559 577.796H818.906V547.484C819.034 525.358 819.545 515.766 820.695 512.185C823.506 504.639 828.871 498.5 836.025 495.175C842.158 492.361 843.946 492.105 866.43 492.105H890.32L890.703 417.797L890.985 363.036L905.307 363ZM852.378 518.963L849.056 522.928L845.735 526.893V552.344V577.796H904.5H963.265V552.088V526.381L959.56 522.672L955.856 518.963H904.117H852.378Z" fill="white"/>
<path fill-rule="evenodd" clip-rule="evenodd" d="M478.27 665.01C478.59 664.85 478.21 666.65 477.31 670.24C476.54 674.61 475.77 696.43 475.77 719.03C475.77 758.57 476.03 761.14 484.23 785.79C491.92 809.16 506.28 839.2 513.71 846.9C515.25 848.7 519.61 854.09 523.2 858.97C541.4 883.11 562.93 901.08 592.42 915.98C619.33 929.84 630.87 934.46 647.28 938.32C709.958 952.76 777.685 938.03 829.37 901.59L844 889.61V903.51L834.517 910.91C803.978 931.83 768.023 945.51 729.313 950.13C688.55 955.01 642.41 950.13 613.95 938.06C567.81 918.03 537.81 896.46 515.51 866.68C511.92 861.8 507.56 856.4 506.02 854.61C498.59 846.9 484.23 816.86 476.54 793.49C468.59 769.1 468.08 765.76 468.08 728.02C468.02 717.62 467.94 709.95 468.08 703.72L469.38 688.65L470.31 685.12C472.04 679.23 473.66 674.48 475 671.53C476.93 667.29 477.95 665.17 478.27 665.01Z" fill="#FF0000"/>
<path fill-rule="evenodd" clip-rule="evenodd" d="M1104.52 682C1165.18 682 1227.63 707.69 1268.84 749.82C1311.33 793.5 1332.83 846.94 1332.83 909.36C1332.83 928.89 1333.34 931.46 1336.93 930.17C1340 928.89 1340.77 929.66 1339.23 933C1338.85 934.28 1337.89 937.3 1336.64 941.16L1333.12 951.87L1331.58 955.43C1330.48 957.38 1329.44 958.59 1328.48 958.95C1325.92 959.72 1325.15 952.27 1325.15 927.35C1325.15 875.19 1319.78 850.53 1299.56 810.45C1288.81 789.13 1279.08 776.03 1261.16 757.53C1227.12 722.59 1182.58 700.5 1131.65 693.05C1104 688.94 1102.21 688.94 1076.62 694.07C1069.96 695.36 1062.38 697.3 1054.6 699.62L1038 705.21L1038.01 701.7L1038.01 694.7L1041.97 693.3C1064.2 686.75 1088.39 682 1104.52 682Z" fill="#FF0000"/>
<path fill-rule="evenodd" clip-rule="evenodd" d="M1011 704V715.72L1003.7 719.54C1001.6 720.76 999.901 721.91 998.694 722.93C995.899 725.5 992.342 727.82 990.563 728.33C987.769 729.23 978.368 737.06 968.141 746.54L964.57 750H949L960.519 738.83C970.745 729.36 980.146 721.52 982.941 720.62C984.72 720.11 988.277 717.8 991.072 715.23C993.136 713.43 995.943 711.56 999.337 709.66L1011 704Z" fill="#FF0000"/>
<path fill-rule="evenodd" clip-rule="evenodd" d="M1038 705L1037.96 720.28C1037.82 752.69 1037.32 755.8 1035.59 759.35C1034.18 762.04 1031.12 766.13 1028.69 768.56C1021.4 775.59 1015.77 776.74 988.54 776.74H964.503V942.32V1107.91H983.553H1002.73L1005.42 1111.49C1007.72 1114.43 1008.1 1116.22 1007.72 1122.48C1006.82 1134.12 1005.54 1134.76 982.914 1134.76H964.503V1151.38V1168H996.339C1026.51 1168 1028.3 1168.13 1031.5 1170.69C1034.44 1172.99 1034.82 1174.14 1034.82 1181.3C1034.82 1187.57 1034.31 1189.87 1032.27 1192.04C1029.71 1194.86 1028.94 1194.86 997.106 1194.86H964.503V1226.18V1257.51H982.324L976.082 1258.73C959.565 1261.44 944.237 1262.16 912.908 1262.73C885.487 1263.25 858.836 1262.99 853.966 1262.22C851.532 1261.96 845.83 1261 838.59 1259.69L827.057 1257.51H844.322V1226.18V1194.86H811.719C772.98 1194.86 774.003 1195.24 774.003 1181.56C774.003 1174.14 774.387 1172.99 777.327 1170.69C780.523 1168.13 782.313 1168 812.487 1168H844.322V1151.51V1134.89L825.016 1134.5C806.478 1134.12 805.582 1133.99 803.281 1131.05C799.829 1126.83 799.957 1115.84 803.537 1111.23L806.094 1107.91H825.272H844.322V942.32V903.29L856.682 893.66L871.761 878.58L871.754 889.97C871.723 973.97 871.922 1084.72 872.322 1101.26L872.449 1107.91H904.157H935.992L936.759 1090.39C937.91 1067.89 937.91 794.9 936.887 784.54L936.303 779.45L940.329 774.42C943.404 770.7 947.729 766.07 952.574 761.18L964.34 749.89H1004.01L1007.59 746.82L1011.17 743.75V717.67V715.66L1011.29 715.6C1016.97 712.9 1023.9 710.01 1031.37 707.22L1038 705ZM872.577 1134.76L871.683 1140.51C871.299 1143.71 871.299 1151.25 871.81 1157.14L872.705 1168H904.413H936.12L936.632 1153.04C936.887 1144.73 936.887 1137.19 936.632 1136.42C936.248 1135.14 928.577 1134.76 904.413 1134.76H872.577ZM872.833 1194.86L871.938 1198.82C870.915 1203.93 870.915 1252.78 871.938 1255.46C872.577 1257.25 876.669 1257.51 904.413 1257.51H936.12L936.632 1229.76C936.759 1214.42 936.759 1200.35 936.504 1198.44L936.12 1194.86H904.413H872.833Z" fill="white"/>
<path fill-rule="evenodd" clip-rule="evenodd" d="M924.45 777H935.692L936 779.71L932.23 784.47C925.333 793.83 920.044 803.51 907.465 828.36C899.016 845.18 888.565 860.64 876.443 874.51L872 879L872.009 866.08L872.014 862.24L875.446 858.41C884.341 846.85 895.268 829.9 899.842 820.65C908.228 804.09 913.373 794.26 917.916 786.78L924.45 777Z" fill="#FF0000"/>
<path fill-rule="evenodd" clip-rule="evenodd" d="M891 363L890.717 417.752L890.334 492.047H866.428C843.928 492.047 842.139 492.303 836.003 495.116C828.844 498.441 823.474 504.579 820.662 512.123C819.512 515.704 819 525.294 818.872 547.417V577.723H808.517C802.892 577.723 795.734 578.362 792.666 579.129C785.762 580.92 777.581 587.697 773.745 594.858L770.933 600.101V677.46C770.933 751.12 771.061 755.08 773.362 759.82C774.768 762.5 777.837 766.59 780.265 769.02C787.552 776.06 793.177 777.21 820.406 777.21H844.44V889.87L829.817 901.84C778.157 938.24 710.461 952.95 647.81 938.52C631.41 934.68 619.88 930.06 592.98 916.21C563.51 901.33 541.98 883.38 523.79 859.27C520.2 854.4 515.85 849.01 514.31 847.21C506.88 839.52 492.53 809.51 484.84 786.17C476.64 761.55 476.39 758.98 476.39 719.48C476.39 696.91 477.16 675.11 477.92 670.75C479.72 663.57 479.46 663.57 475.62 672.03C474.27 674.98 472.66 679.73 470.93 685.61L470 689.14L470.05 688.61C471.71 679.41 475.23 670.88 482.54 652.8C483.56 649.97 486.12 643.56 487.92 638.69C503.8 594.573 544.8 533.273 585.03 492.491C591.69 486.079 623.98 458.378 635 449.914C681.63 414.262 752.1 383.227 819.491 368.863C841.24 364.375 851.609 363.225 888.022 363.007L891 363Z" fill="#FF0000"/>
<path fill-rule="evenodd" clip-rule="evenodd" d="M918.096 363L927.022 363.102C974.115 364.088 995.767 368.242 1040.36 382.615C1160.21 420.857 1257.78 506.324 1311.05 619C1344.85 690.86 1359.96 771.19 1353.56 846.91C1350.3 885.6 1342.13 927.76 1335.02 947.61L1333.11 952L1336.63 941.29C1337.88 937.44 1338.84 934.43 1339.22 933.15C1340.76 929.81 1339.99 929.04 1336.92 930.32C1333.33 931.61 1332.82 929.04 1332.82 909.53C1332.82 847.17 1311.31 793.78 1268.79 750.15C1227.56 708.06 1165.08 682.39 1104.38 682.39C1088.25 682.39 1064.05 687.14 1041.8 693.68L1037.84 695.08L1037.85 677.56V600.145L1035.04 594.899C1031.21 587.733 1023.03 580.951 1016.13 579.16C1013.06 578.392 1005.91 577.753 1000.29 577.753H989.938V548.066C989.938 531.431 989.299 516.076 988.66 513.517C986.743 506.863 980.1 498.546 973.967 495.347C969.367 492.916 966.301 492.66 943.942 492.276C930.271 492.02 918.772 491.38 918.389 490.741C918.006 489.973 917.878 458.495 918.133 420.747C918.261 401.81 918.261 384.119 918.181 370.875L918.096 363Z" fill="#FF0000"/>
<path fill-rule="evenodd" clip-rule="evenodd" d="M852.613 519H904.118H955.624L959.312 522.72L963 526.439V552.219V578H904.5H846V552.476V526.952L849.306 522.976L852.613 519Z" fill="#FF0000"/>
<path fill-rule="evenodd" clip-rule="evenodd" d="M803.523 605H904.436H1005.35L1008.29 607.94C1011.1 610.75 1011.23 611.77 1011.62 636.94L1012 663L947.282 663.38L882.437 663.77L880.007 666.83C876.553 671.05 876.553 683.31 880.007 687.53L882.437 690.59L946.899 691.23L1011.23 691.87V704.12L999.464 709.76C996.04 711.66 993.208 713.52 991.125 715.32C988.305 717.88 984.716 720.18 982.922 720.7C980.102 721.59 970.616 729.41 960.298 738.86L948.676 750H904.308H804.418L800.709 746.3L797 742.59V716.91V691.36L824.626 690.98C851.869 690.59 852.253 690.59 854.683 687.53C858.136 683.31 858.136 671.05 854.683 666.83C852.253 663.77 851.741 663.77 824.882 663.13L797.639 662.49V636.68C797.639 611.52 797.767 610.75 800.581 607.94L803.523 605Z" fill="#FF0000"/>
<path fill-rule="evenodd" clip-rule="evenodd" d="M469.4 689L468.1 704.06C467.96 710.28 468.04 717.94 468.1 728.33C468.1 766.04 468.62 769.38 476.56 793.75C484.25 817.1 498.61 847.11 506.04 854.81C507.58 856.6 511.94 861.99 515.53 866.87C537.83 896.63 567.82 918.18 613.96 938.19C642.42 950.24 688.56 955.12 729.319 950.24C768.028 945.63 803.98 931.96 834.518 911.06L844 903.67V942.72V1108.36H824.944H805.76L803.203 1111.68C799.622 1116.29 799.494 1127.28 802.947 1131.51C805.249 1134.45 806.144 1134.57 824.688 1134.96L844 1135.34V1151.97V1168.47H812.155C781.973 1168.47 780.182 1168.6 776.985 1171.16C774.043 1173.46 773.66 1174.61 773.66 1182.03C773.66 1195.71 772.637 1195.33 811.387 1195.33H844V1226.66V1258H826.73L813.657 1255.53C723.167 1237.32 642.93 1193.19 578.84 1126.23C513.22 1057.73 475.54 982.82 458.62 887.39C452.21 852.24 451.18 785.54 456.05 751.42C457.98 737.83 461.37 720.89 464.96 705.89L469.4 689Z" fill="#0000F6"/>
<path fill-rule="evenodd" clip-rule="evenodd" d="M1103.95 690.01C1111.06 689.88 1118.43 690.91 1132.27 692.96C1183.27 700.4 1227.86 722.48 1261.95 757.38C1279.89 775.86 1289.63 788.95 1300.39 810.25C1320.64 850.29 1326.02 874.92 1326.02 927.02C1326.02 951.92 1326.79 959.36 1329.35 958.59C1330.31 958.24 1331.36 957.03 1332.46 955.08L1334 951.52L1333.2 953.97C1326.02 977.33 1321.92 987.08 1305 1020.7C1284.24 1061.51 1260.92 1093.59 1224.79 1130.03C1157.9 1197.53 1087.42 1236.02 994.131 1255.79L982.822 1258H965V1226.65V1195.3H997.604C1029.44 1195.3 1030.21 1195.3 1032.77 1192.49C1034.81 1190.31 1035.32 1188.01 1035.32 1181.74C1035.32 1174.58 1034.94 1173.42 1032 1171.12C1028.8 1168.56 1027.01 1168.43 996.837 1168.43H965V1151.8V1135.17H983.412C1006.04 1135.17 1007.32 1134.53 1008.22 1122.88C1008.6 1116.61 1008.22 1114.82 1005.91 1111.88L1003.23 1108.3H984.051H965V942.6V776.9H989.037C1016.27 776.9 1021.9 775.75 1029.19 768.71C1031.61 766.28 1034.68 762.18 1036.09 759.5C1037.82 755.95 1038.32 752.83 1038.46 720.4L1038.5 705.11L1055.12 699.53C1062.91 697.21 1070.5 695.27 1077.17 693.99C1089.98 691.42 1096.84 690.14 1103.95 690.01Z" fill="#0000F6"/>
<path fill-rule="evenodd" clip-rule="evenodd" d="M1038 695L1038 701.94L1037.99 705.41L1031.32 707.62C1023.81 710.39 1016.83 713.26 1011.12 715.94L1011 716V704.39L1011.13 704.33L1038 695Z" fill="white"/>
<path fill-rule="evenodd" clip-rule="evenodd" d="M1011 716V717.99V743.9L1007.41 746.95L1003.81 750H964L967.615 746.57C977.967 737.17 987.484 729.4 990.313 728.51C992.113 728 995.714 725.71 998.543 723.16C999.765 722.14 1001.48 721.01 1003.61 719.79L1011 716Z" fill="#0000F6"/>
<path fill-rule="evenodd" clip-rule="evenodd" d="M948.567 750H964L952.437 761.46C947.676 766.42 943.426 771.12 940.403 774.89L936.447 780L936.142 777.25H925L925.155 777.01C927.433 773.85 929.889 770.73 932.848 767.09C935.87 763.31 940.12 758.61 944.881 753.65L948.567 750Z" fill="white"/>
<path fill-rule="evenodd" clip-rule="evenodd" d="M873.06 777H904.712H925L918.396 786.75C913.805 794.21 908.603 804.01 900.127 820.53C895.504 829.75 884.459 846.65 875.469 858.18L872 862L872.025 843.91C872.075 816.55 872.163 797.33 872.291 793.98L873.06 777Z" fill="#FF0000"/>
<path fill-rule="evenodd" clip-rule="evenodd" d="M936.662 780L937.247 785.08C938.272 795.43 938.272 1068.03 937.119 1090.51L936.351 1108H904.461H872.7L872.572 1101.36C872.172 1084.84 871.972 974.25 872.003 890.36L872.011 879L876.499 874.52C888.745 860.69 899.301 845.28 907.837 828.5C920.543 803.72 925.886 794.07 932.853 784.74L936.662 780Z" fill="#0000F6"/>
<path fill-rule="evenodd" clip-rule="evenodd" d="M872 862L871.995 865.89L871.986 878.96L856.606 894.24L844 904V889.92L853.969 881.81L872 862Z" fill="white"/>
<path fill-rule="evenodd" clip-rule="evenodd" d="M872.179 1135H904.299C928.68 1135 936.42 1135.38 936.807 1136.65C937.064 1137.41 937.064 1144.9 936.807 1153.15L936.291 1168H904.299H872.308L871.405 1157.21C870.889 1151.37 870.889 1143.88 871.276 1140.71L872.179 1135Z" fill="#0000F6"/>
<path fill-rule="evenodd" clip-rule="evenodd" d="M872.674 1195H904.473H936.401L936.787 1198.6C937.044 1200.53 937.044 1214.67 936.916 1230.1L936.401 1258H904.473C876.536 1258 872.416 1257.74 871.773 1255.94C870.743 1253.24 870.743 1204.13 871.773 1198.99L872.674 1195Z" fill="#0000F6"/>
<path fill-rule="evenodd" clip-rule="evenodd" d="M706.24 1258H775.143H826.656L838.187 1260.18C845.425 1261.49 851.127 1262.46 853.561 1262.71C858.429 1263.48 885.077 1263.74 912.494 1263.22C943.819 1262.65 959.145 1261.93 975.66 1259.22L981.901 1258H1032.86C1100.23 1258 1101.63 1258 1106.62 1260.69C1113.78 1264.52 1116.97 1267.72 1120.17 1274.49C1122.85 1279.99 1123.11 1282.29 1123.24 1309.15C1123.36 1325 1123.49 1342.65 1123.62 1348.4L1123.88 1358.76L1138.32 1363.62C1188.31 1380.24 1230.36 1403.38 1259.38 1430.23C1272.68 1442.64 1276 1447.5 1276 1455.04C1276 1459.64 1275.23 1462.07 1272.93 1464.76C1270.12 1467.96 1268.97 1468.34 1262.19 1468.34L1254.52 1468.21L1243.91 1457.47C1226.14 1439.44 1208.76 1427.29 1180.38 1412.85C1126.31 1385.61 1062.13 1368.48 978.784 1359.4C962.548 1357.61 946.953 1357.22 903.361 1357.1C854.4 1357.1 845.708 1357.48 823.848 1360.04C741.138 1369.75 681.44 1385.87 627.37 1412.85C601.16 1426.02 574.06 1445.2 561.79 1459.52C554.24 1468.21 546.83 1470.9 538.9 1467.7C534.43 1465.91 532 1461.31 532 1454.79C532 1447.62 535.32 1442.64 548.11 1430.62C576.49 1404.02 619.31 1380.37 669.81 1363.62C682.33 1359.4 684.25 1358.37 684.89 1355.56C685.4 1353.77 685.4 1337.79 684.89 1320.14C684.25 1297.77 684.38 1286 685.4 1281.27C687.32 1272.83 693.2 1264.91 700.61 1260.94L706.24 1258ZM904 1284.85C718.384 1284.85 717.872 1284.85 715.06 1287.41C712.375 1289.97 712.248 1290.86 712.248 1320.65V1351.21L716.466 1349.94C718.639 1349.3 730.4 1346.74 742.417 1344.31C794.445 1333.57 840.594 1329.35 904 1329.35C971.88 1329.22 1025.19 1334.72 1080.16 1347.38L1095.75 1350.96V1320.91C1095.75 1291.76 1095.63 1290.73 1092.94 1287.79L1090.26 1284.85H904Z" fill="black"/>
<path d="M918 363H891L888.5 375L920 374.5L918 363Z" fill="#FF0000"/>
<path d="M917.995 371C916.73 364.24 913.099 363 904.5 363V386.855H905.172L918.244 387L918.195 379C918.283 375.077 918.09 371.563 917.995 371Z" fill="white"/>
<path d="M891.249 371C892.514 364.24 896.145 363 904.744 363V386.855H904.072L891 387L891.049 379C890.961 375.077 891.154 371.563 891.249 371Z" fill="white"/>
</g>
<defs>
<clipPath id="clip0_26_36">
<rect width="1810" height="1809" fill="white"/>
</clipPath>
</defs>
</svg>
